<svg width="24" height="25" viewBox="0 0 24 25" fill="none" xmlns="http://www.w3.org/2000/svg">
<g id="link-icon">
<mask id="mask0_178_1368" style="mask-type:alpha" maskUnits="userSpaceOnUse" x="0" y="0" width="24" height="25">
<rect id="Bounding box" y="0.5" width="24" height="24" fill="#D9D9D9"/>
</mask>
<g mask="url(#mask0_178_1368)">
<path id="open_in_new" d="M5.30775 21C4.80258 21 4.375 20.825 4.025 20.475C3.675 20.125 3.5 19.6974 3.5 19.1923V5.80775C3.5 5.30258 3.675 4.875 4.025 4.525C4.375 4.175 4.80258 4 5.30775 4H11.6152V5.5H5.30775C5.23075 5.5 5.16025 5.53208 5.09625 5.59625C5.03208 5.66025 5 5.73075 5 5.80775V19.1923C5 19.2692 5.03208 19.3398 5.09625 19.4038C5.16025 19.4679 5.23075 19.5 5.30775 19.5H18.6923C18.7692 19.5 18.8398 19.4679 18.9038 19.4038C18.9679 19.3398 19 19.2692 19 19.1923V12.8848H20.5V19.1923C20.5 19.6974 20.325 20.125 19.975 20.475C19.625 20.825 19.1974 21 18.6923 21H5.30775ZM9.71925 15.8345L8.6655 14.7808L17.9462 5.5H14V4H20.5V10.5H19V6.55375L9.71925 15.8345Z" fill="#005DA4"/>
</g>
</g>
</svg>
