<svg width="24" height="24" viewBox="0 0 24 24" fill="none" xmlns="http://www.w3.org/2000/svg">
<mask id="mask0_46_9694" style="mask-type:alpha" maskUnits="userSpaceOnUse" x="0" y="-1" width="24" height="25">
<rect y="-0.418579" width="24" height="24" fill="#D9D9D9"/>
</mask>
<g mask="url(#mask0_46_9694)">
<path d="M13.75 14.3507C13.9948 14.3507 14.2086 14.2593 14.3913 14.0767C14.5739 13.894 14.6652 13.6802 14.6652 13.4352C14.6652 13.1903 14.5739 12.9766 14.3913 12.7939C14.2086 12.6113 13.9948 12.5199 13.75 12.5199C13.5052 12.5199 13.2914 12.6113 13.1087 12.7939C12.9259 12.9766 12.8345 13.1903 12.8345 13.4352C12.8345 13.6802 12.9259 13.894 13.1087 14.0767C13.2914 14.2593 13.5052 14.3507 13.75 14.3507ZM13.1538 11.3429H14.346C14.3588 10.8916 14.4169 10.5567 14.5203 10.3382C14.6234 10.1195 14.8679 9.82367 15.2538 9.45067C15.7153 9.00834 16.0293 8.63459 16.196 8.32942C16.3627 8.02442 16.446 7.67 16.446 7.26617C16.446 6.5545 16.1947 5.96759 15.6923 5.50542C15.1898 5.04325 14.5423 4.81217 13.75 4.81217C13.1308 4.81217 12.5863 4.983 12.1163 5.32467C11.6464 5.66634 11.3051 6.125 11.0922 6.70067L12.173 7.15442C12.3423 6.75059 12.5593 6.44775 12.824 6.24592C13.0888 6.04392 13.3975 5.94292 13.75 5.94292C14.1885 5.94292 14.5487 6.06984 14.8307 6.32367C15.1127 6.5775 15.2538 6.91217 15.2538 7.32767C15.2538 7.58017 15.1823 7.817 15.0395 8.03817C14.8965 8.25934 14.6487 8.53142 14.2962 8.85442C13.8102 9.28009 13.4983 9.63842 13.3605 9.92942C13.2227 10.2206 13.1538 10.6918 13.1538 11.3429ZM8.05775 17.0814C7.55258 17.0814 7.125 16.9064 6.775 16.5564C6.425 16.2064 6.25 15.7788 6.25 15.2737V3.88917C6.25 3.384 6.425 2.95642 6.775 2.60642C7.125 2.25642 7.55258 2.08142 8.05775 2.08142H19.4423C19.9474 2.08142 20.375 2.25642 20.725 2.60642C21.075 2.95642 21.25 3.384 21.25 3.88917V15.2737C21.25 15.7788 21.075 16.2064 20.725 16.5564C20.375 16.9064 19.9474 17.0814 19.4423 17.0814H8.05775ZM8.05775 15.5814H19.4423C19.5193 15.5814 19.5898 15.5493 19.6538 15.4852C19.7179 15.4212 19.75 15.3507 19.75 15.2737V3.88917C19.75 3.81217 19.7179 3.74167 19.6538 3.67767C19.5898 3.6135 19.5193 3.58142 19.4423 3.58142H8.05775C7.98075 3.58142 7.91025 3.6135 7.84625 3.67767C7.78208 3.74167 7.75 3.81217 7.75 3.88917V15.2737C7.75 15.3507 7.78208 15.4212 7.84625 15.4852C7.91025 15.5493 7.98075 15.5814 8.05775 15.5814ZM4.55775 20.5814C4.05258 20.5814 3.625 20.4064 3.275 20.0564C2.925 19.7064 2.75 19.2788 2.75 18.7737V5.88917H4.25V18.7737C4.25 18.8507 4.28208 18.9212 4.34625 18.9852C4.41025 19.0493 4.48075 19.0814 4.55775 19.0814H17.4423V20.5814H4.55775Z" fill="#005DA4"/>
</g>
</svg>
