<svg width="24" height="24" viewBox="0 0 24 24" fill="none" xmlns="http://www.w3.org/2000/svg">
<mask id="mask0_185_16806" style="mask-type:alpha" maskUnits="userSpaceOnUse" x="0" y="-1" width="24" height="25">
<rect y="-0.418579" width="24" height="24" fill="#D9D9D9"/>
</mask>
<g mask="url(#mask0_185_16806)">
<path d="M11.25 21.0814V12.8737C11.0142 12.7288 10.8302 12.5482 10.698 12.3317C10.566 12.1152 10.5 11.8647 10.5 11.5802C10.5 11.172 10.6478 10.8202 10.9433 10.5247C11.2388 10.2292 11.591 10.0814 12 10.0814C12.409 10.0814 12.7613 10.2292 13.0568 10.5247C13.3523 10.8202 13.5 11.1717 13.5 11.5792C13.5 11.8632 13.434 12.1163 13.302 12.3384C13.1698 12.5606 12.9858 12.739 12.75 12.8737V21.0814H11.25ZM5.45575 18.4757C4.54425 17.6038 3.82375 16.5779 3.29425 15.3979C2.76475 14.2178 2.5 12.9465 2.5 11.5842C2.5 10.2695 2.74933 9.03409 3.248 7.87792C3.74667 6.72175 4.42342 5.71609 5.27825 4.86092C6.13308 4.00575 7.13833 3.32867 8.294 2.82967C9.44967 2.33084 10.6844 2.08142 11.9983 2.08142C13.3123 2.08142 14.5473 2.33084 15.7035 2.82967C16.8597 3.3285 17.8653 4.0055 18.7205 4.86067C19.5757 5.71584 20.2528 6.72142 20.7518 7.87742C21.2506 9.03342 21.5 10.2686 21.5 11.5829C21.5 12.9448 21.2352 14.2186 20.7057 15.4044C20.1763 16.5904 19.4557 17.6142 18.5443 18.4757L17.5 17.4219C18.2667 16.6898 18.875 15.8203 19.325 14.8137C19.775 13.807 20 12.7296 20 11.5814C20 9.34809 19.225 7.45642 17.675 5.90642C16.125 4.35642 14.2333 3.58142 12 3.58142C9.76667 3.58142 7.875 4.35642 6.325 5.90642C4.775 7.45642 4 9.34809 4 11.5814C4 12.7314 4.225 13.8064 4.675 14.8064C5.125 15.8064 5.74167 16.6731 6.525 17.4064L5.45575 18.4757ZM8.28075 15.6507C7.73592 15.1455 7.30292 14.5442 6.98175 13.8467C6.66058 13.149 6.5 12.3939 6.5 11.5814C6.5 10.0536 7.0345 8.755 8.1035 7.68567C9.1725 6.61617 10.4706 6.08142 11.9978 6.08142C13.5249 6.08142 14.8238 6.61651 15.8943 7.68667C16.9648 8.75684 17.5 10.0563 17.5 11.5852C17.5 12.3955 17.3394 13.1519 17.0182 13.8544C16.6971 14.5571 16.2641 15.1558 15.7193 15.6507L14.65 14.5814C15.0667 14.1981 15.3958 13.7481 15.6375 13.2314C15.8792 12.7148 16 12.1648 16 11.5814C16 10.4814 15.6083 9.53975 14.825 8.75642C14.0417 7.97309 13.1 7.58142 12 7.58142C10.9 7.58142 9.95833 7.97309 9.175 8.75642C8.39167 9.53975 8 10.4814 8 11.5814C8 12.1814 8.12083 12.7356 8.3625 13.2439C8.60417 13.7523 8.93333 14.1981 9.35 14.5814L8.28075 15.6507Z" fill="#005DA4"/>
</g>
</svg>
