<svg width="24" height="24" viewBox="0 0 24 24" fill="none" xmlns="http://www.w3.org/2000/svg">
<path d="M16.9 19.1997V4.80029C17.1438 4.79699 17.3857 4.84212 17.6109 4.93291C17.8361 5.0237 18.0397 5.15824 18.2094 5.32825C18.3845 5.493 18.523 5.69077 18.6165 5.90941C18.71 6.12805 18.7565 6.36294 18.7531 6.59966V17.4003C18.7519 17.8772 18.5563 18.3342 18.209 18.6714C17.8618 19.0086 17.3911 19.1985 16.9 19.1997ZM4.85401 20.9998C4.6101 21.0032 4.36805 20.9581 4.14275 20.8673C3.91744 20.7766 3.71365 20.642 3.54389 20.4719C3.36871 20.307 3.23011 20.1091 3.13661 19.8904C3.04311 19.6716 2.99668 19.4366 3.00018 19.1997V4.80029C2.99668 4.56345 3.04311 4.32841 3.13661 4.10964C3.23011 3.89086 3.36871 3.69297 3.54389 3.52813C3.71365 3.35803 3.91744 3.22344 4.14275 3.13265C4.36805 3.04186 4.6101 2.99678 4.85401 3.00018H13.1955C13.4392 2.99688 13.6811 3.04201 13.9063 3.1328C14.1315 3.22359 14.3351 3.35812 14.5048 3.52813C14.6799 3.69288 14.8184 3.89065 14.9119 4.10929C15.0054 4.32793 15.0519 4.56283 15.0485 4.79955V19.1997C15.0475 19.6768 14.8519 20.1341 14.5044 20.4715C14.157 20.8089 13.686 20.9988 13.1947 20.9998H4.85401ZM20.61 17.3996V6.60041C20.7928 6.59942 20.974 6.63365 21.1431 6.70113C21.3122 6.76861 21.4659 6.86799 21.5951 6.99352C21.7244 7.11905 21.8268 7.26824 21.8962 7.43244C21.9657 7.59664 22.001 7.77259 22 7.95012V16.0499C22.001 16.2274 21.9657 16.4034 21.8962 16.5676C21.8268 16.7318 21.7244 16.8809 21.5951 17.0065C21.4659 17.132 21.3122 17.2314 21.1431 17.2989C20.974 17.3663 20.7928 17.4006 20.61 17.3996ZM4.85401 19.1997H13.1955V4.80029H4.85401V19.1997Z" fill="#005DA4"/>
</svg>
